<svg xmlns="http://www.w3.org/2000/svg" width="114" height="152" viewBox="0 0 114 152" fill="none">
  <g opacity="0.5" filter="url(#filter0_d_1578_278)">
    <path d="M60.0332 5.65783C60.2956 4.66521 61.7044 4.66521 61.9668 5.65783L74.3913 52.6651C74.4634 52.938 74.6475 53.1677 74.8981 53.2975L109.286 71.1121C110.006 71.4851 110.006 72.5149 109.286 72.8879L74.8981 90.7025C74.6475 90.8323 74.4634 91.062 74.3913 91.3349L61.9668 138.342C61.7044 139.335 60.2956 139.335 60.0332 138.342L47.6087 91.3349C47.5366 91.062 47.3525 90.8323 47.1019 90.7025L12.714 72.8879C11.994 72.5149 11.994 71.4851 12.714 71.1121L47.1019 53.2975C47.3525 53.1677 47.5366 52.938 47.6087 52.6651L60.0332 5.65783Z" fill="#B1D6FB"/>
    <path d="M63.9004 5.14676C63.1133 2.16893 58.8867 2.16887 58.0996 5.14676L45.7884 51.7256L11.794 69.3362C9.63396 70.4552 9.63396 73.5448 11.794 74.6638L45.7884 92.2744L58.0996 138.853C58.8867 141.831 63.1133 141.831 63.9004 138.853L76.2116 92.2744L110.206 74.6638C112.366 73.5448 112.366 70.4552 110.206 69.3362L76.2116 51.7256L63.9004 5.14676ZM46.1819 92.4783C46.181 92.4778 46.1801 92.4774 46.1791 92.4769L46.1819 92.4783Z" stroke="#2C2B2B" stroke-width="4"/>
  </g>
  <defs>
    <filter id="filter0_d_1578_278" x="0.173828" y="0.91333" width="113.652" height="150.173" filterUnits="userSpaceOnUse" color-interpolation-filters="sRGB">
      <feFlood flood-opacity="0" result="BackgroundImageFix"/>
      <feColorMatrix in="SourceAlpha" type="matrix" values="0 0 0 0 0 0 0 0 0 0 0 0 0 0 0 0 0 0 127 0" result="hardAlpha"/>
      <feOffset dx="-4" dy="4"/>
      <feGaussianBlur stdDeviation="2"/>
      <feComposite in2="hardAlpha" operator="out"/>
      <feColorMatrix type="matrix" values="0 0 0 0 0.172549 0 0 0 0 0.168627 0 0 0 0 0.168627 0 0 0 1 0"/>
      <feBlend mode="normal" in2="BackgroundImageFix" result="effect1_dropShadow_1578_278"/>
      <feBlend mode="normal" in="SourceGraphic" in2="effect1_dropShadow_1578_278" result="shape"/>
    </filter>
  </defs>
</svg>