<svg xmlns="http://www.w3.org/2000/svg" width="63" height="152" viewBox="0 0 63 152" fill="none">
  <g filter="url(#filter0_d_1578_277)">
    <path d="M52.0332 5.65783C52.2956 4.66521 53.7044 4.66521 53.9668 5.65783L66.3913 52.6651C66.4634 52.938 66.6475 53.1677 66.8981 53.2975L101.286 71.1121C102.006 71.4851 102.006 72.5149 101.286 72.8879L66.8981 90.7025C66.6475 90.8323 66.4634 91.062 66.3913 91.3349L53.9668 138.342C53.7044 139.335 52.2956 139.335 52.0332 138.342L39.6087 91.3349C39.5366 91.062 39.3525 90.8323 39.1019 90.7025L4.71399 72.8879C3.99397 72.5149 3.99397 71.4851 4.71399 71.1121L39.1019 53.2975C39.3525 53.1677 39.5366 52.938 39.6087 52.6651L52.0332 5.65783Z" fill="#FEFDF3"/>
    <path d="M55.9004 5.14676C55.1133 2.16893 50.8867 2.16887 50.0996 5.14676L37.7884 51.7256L3.79402 69.3362C1.63396 70.4552 1.63396 73.5448 3.79401 74.6638L37.7884 92.2744L50.0996 138.853C50.8867 141.831 55.1133 141.831 55.9004 138.853L68.2116 92.2744L102.206 74.6638C104.366 73.5448 104.366 70.4552 102.206 69.3362L68.2116 51.7256L55.9004 5.14676ZM38.1819 92.4783C38.181 92.4778 38.1801 92.4774 38.1791 92.4769L38.1819 92.4783Z" stroke="#2C2B2B" stroke-width="4"/>
  </g>
  <defs>
    <filter id="filter0_d_1578_277" x="0.173828" y="0.91333" width="113.652" height="150.173" filterUnits="userSpaceOnUse" color-interpolation-filters="sRGB">
      <feFlood flood-opacity="0" result="BackgroundImageFix"/>
      <feColorMatrix in="SourceAlpha" type="matrix" values="0 0 0 0 0 0 0 0 0 0 0 0 0 0 0 0 0 0 127 0" result="hardAlpha"/>
      <feOffset dx="4" dy="4"/>
      <feGaussianBlur stdDeviation="2"/>
      <feComposite in2="hardAlpha" operator="out"/>
      <feColorMatrix type="matrix" values="0 0 0 0 0.172549 0 0 0 0 0.168627 0 0 0 0 0.168627 0 0 0 1 0"/>
      <feBlend mode="normal" in2="BackgroundImageFix" result="effect1_dropShadow_1578_277"/>
      <feBlend mode="normal" in="SourceGraphic" in2="effect1_dropShadow_1578_277" result="shape"/>
    </filter>
  </defs>
</svg>